# Blender v2.79 (sub 0) OBJ File: 'basicBlock.blend'
# www.blender.org
mtllib BasicBlock.mtl
o Cube
v 1.000000 0.000000 1.000000
v -1.000000 0.000000 1.000000
v 1.000000 2.000000 1.000000
v -1.000000 2.000000 1.000000
v -1.000000 0.000000 -0.000000
v 1.000000 0.000000 -0.000000
v -0.000000 0.000000 1.000000
v 1.000000 1.000000 1.000000
v -1.000000 1.000000 1.000000
v -1.000000 2.000000 -0.000000
v 1.000000 2.000000 0.000000
v -0.000000 2.000000 1.000000
v -1.000000 1.000000 -0.000000
v -0.000000 1.000000 1.000000
v 1.000000 1.000000 0.000000
v 0.000000 2.000000 0.000000
v -0.000000 0.000000 -0.000000
v -1.000000 0.000000 0.500000
v 1.000000 0.000000 0.500000
v -0.500000 0.000000 1.000000
v 1.000000 1.500000 1.000000
v -1.000000 1.500000 1.000000
v -1.000000 2.000000 0.500000
v 1.000000 2.000000 0.500000
v -0.500000 2.000000 1.000000
v -1.000000 0.000000 -0.500000
v 1.000000 0.000000 -0.500000
v 0.500000 0.000000 1.000000
v 1.000000 0.500000 1.000000
v -1.000000 0.500000 1.000000
v -1.000000 2.000000 -0.500000
v 1.000000 2.000000 -0.499999
v 0.500000 2.000000 1.000000
v -1.000000 1.000000 0.500000
v -1.000000 1.000000 -0.500000
v -1.000000 1.500000 -0.000000
v -1.000000 0.500000 -0.000000
v -0.500000 1.000000 1.000000
v 0.500000 1.000000 1.000000
v -0.000000 0.500000 1.000000
v -0.000000 1.500000 1.000000
v 1.000000 1.000000 0.500000
v 1.000000 1.000000 -0.500000
v 1.000000 0.500000 0.000000
v 1.000000 1.500000 0.000000
v 0.500000 1.000000 -1.000000
v -0.500000 1.000000 -1.000000
v 0.000000 0.500000 -1.000000
v 0.000000 1.500000 -1.000000
v 0.500000 2.000000 0.000000
v -0.500000 2.000000 -0.000000
v 0.000000 2.000000 -0.500000
v 0.000000 2.000000 0.500000
v -0.000000 0.000000 0.500000
v -0.000000 0.000000 -0.500000
v -0.500000 0.000000 -0.000000
v 0.500000 0.000000 -0.000000
v 0.500000 0.000000 -0.500000
v -0.500000 0.000000 -0.500000
v -0.500000 0.000000 0.500000
v -0.500000 2.000000 0.500000
v -0.500000 2.000000 -0.500000
v 0.500000 2.000000 -0.500000
v -0.500000 1.500000 -1.000000
v -0.500000 0.500000 -1.000000
v 0.500000 0.500000 -1.000000
v 1.000000 1.500000 -0.500000
v 1.000000 0.500000 -0.500000
v 1.000000 0.500000 0.500000
v 0.500000 1.500000 1.000000
v 0.500000 0.500000 1.000000
v -0.500000 0.500000 1.000000
v -1.000000 0.500000 -0.500000
v -1.000000 1.500000 -0.500000
v -1.000000 1.500000 0.500000
v -1.000000 0.500000 0.500000
v -0.500000 1.500000 1.000000
v 1.000000 1.500000 0.500000
v 0.500000 1.500000 -1.000000
v 0.500000 2.000000 0.500000
v 0.500000 0.000000 0.500000
v -1.000000 0.000000 0.750000
v 1.000000 0.000000 0.750000
v -0.750000 0.000000 1.000000
v 1.000000 1.750000 1.000000
v -1.000000 1.750000 1.000000
v -1.000000 2.000000 0.750000
v 1.000000 2.000000 0.750000
v -0.750000 2.000000 1.000000
v -1.000000 0.000000 -0.250000
v 1.000000 0.000000 -0.250000
v 0.250000 0.000000 1.000000
v 1.000000 0.750000 1.000000
v -1.000000 0.750000 1.000000
v -1.000000 2.000000 -0.250000
v 1.000000 2.000000 -0.249999
v 0.250000 2.000000 1.000000
v -1.000000 1.000000 0.750000
v -1.000000 1.000000 -0.250000
v -1.000000 1.750000 -0.000000
v -1.000000 0.750000 -0.000000
v -0.750000 1.000000 1.000000
v 0.250000 1.000000 1.000000
v -0.000000 0.250000 1.000000
v -0.000000 1.250000 1.000000
v 1.000000 1.000000 0.750000
v 1.000000 1.000000 -0.250000
v 1.000000 0.250000 0.000000
v 1.000000 1.250000 0.000000
v 0.750000 2.000000 0.000000
v -0.250000 2.000000 0.000000
v 0.000000 2.000000 -0.750000
v 0.000000 2.000000 0.250000
v -0.000000 0.000000 0.750000
v -0.000000 0.000000 -0.250000
v -0.750000 0.000000 -0.000000
v 0.250000 0.000000 -0.000000
v -1.000000 0.000000 0.250000
v 1.000000 0.000000 0.250000
v -0.250000 0.000000 1.000000
v 1.000000 1.250000 1.000000
v -1.000000 1.250000 1.000000
v -1.000000 2.000000 0.250000
v 1.000000 2.000000 0.250000
v -0.250000 2.000000 1.000000
v -1.000000 0.000000 -0.750000
v 1.000000 0.000000 -0.750000
v 0.750000 0.000000 1.000000
v 1.000000 0.250000 1.000000
v -1.000000 0.250000 1.000000
v -1.000000 2.000000 -0.750000
v 1.000000 2.000000 -0.749999
v 0.750000 2.000000 1.000000
v -1.000000 1.000000 0.250000
v -1.000000 1.000000 -0.750000
v -1.000000 1.250000 -0.000000
v -1.000000 0.250000 -0.000000
v -0.250000 1.000000 1.000000
v 0.750000 1.000000 1.000000
v -0.000000 0.750000 1.000000
v -0.000000 1.750000 1.000000
v 1.000000 1.000000 0.250000
v 1.000000 1.000000 -0.750000
v 1.000000 0.750000 0.000000
v 1.000000 1.750000 0.000000
v 0.250000 2.000000 0.000000
v -0.750000 2.000000 -0.000000
v 0.000000 2.000000 -0.250000
v -0.000000 2.000000 0.750000
v -0.000000 0.000000 0.250000
v -0.000000 0.000000 -0.750000
v -0.250000 0.000000 -0.000000
v 0.750000 0.000000 -0.000000
v 0.500000 0.000000 -0.250000
v 0.500000 0.000000 -0.750000
v 0.250000 0.000000 -0.500000
v 0.750000 0.000000 -0.500000
v -0.500000 0.000000 -0.250000
v -0.500000 0.000000 -0.750000
v -0.750000 0.000000 -0.500000
v -0.250000 0.000000 -0.500000
v -0.500000 0.000000 0.750000
v -0.500000 0.000000 0.250000
v -0.750000 0.000000 0.500000
v -0.250000 0.000000 0.500000
v -0.250000 2.000000 0.500000
v -0.750000 2.000000 0.500000
v -0.500000 2.000000 0.250000
v -0.500000 2.000000 0.750000
v -0.250000 2.000000 -0.500000
v -0.750000 2.000000 -0.500000
v -0.500000 2.000000 -0.750000
v -0.500000 2.000000 -0.250000
v 0.750000 2.000000 -0.500000
v 0.250000 2.000000 -0.500000
v 0.500000 2.000000 -0.750000
v 0.500000 2.000000 -0.250000
v -0.250000 1.500000 -1.000000
v -0.500000 1.250000 -1.000000
v -0.250000 0.500000 -1.000000
v -0.500000 0.750000 -1.000000
v 0.250000 0.500000 -1.000000
v 0.500000 0.750000 -1.000000
v 1.000000 1.500000 -0.250000
v 1.000000 1.500000 -0.750000
v 1.000000 1.250000 -0.500000
v 1.000000 1.750000 -0.499999
v 1.000000 0.500000 -0.250000
v 1.000000 0.500000 -0.750000
v 1.000000 0.250000 -0.500000
v 1.000000 0.750000 -0.500000
v 1.000000 0.500000 0.750000
v 1.000000 0.500000 0.250000
v 1.000000 0.250000 0.500000
v 1.000000 0.750000 0.500000
v 0.250000 1.500000 1.000000
v 0.750000 1.500000 1.000000
v 0.500000 1.250000 1.000000
v 0.500000 1.750000 1.000000
v 0.250000 0.500000 1.000000
v 0.750000 0.500000 1.000000
v 0.500000 0.250000 1.000000
v 0.500000 0.750000 1.000000
v -0.750000 0.500000 1.000000
v -0.250000 0.500000 1.000000
v -0.500000 0.250000 1.000000
v -0.500000 0.750000 1.000000
v -1.000000 0.500000 -0.250000
v -1.000000 0.500000 -0.750000
v -1.000000 0.750000 -0.500000
v -1.000000 0.250000 -0.500000
v -1.000000 1.500000 -0.250000
v -1.000000 1.500000 -0.750000
v -1.000000 1.750000 -0.500000
v -1.000000 1.250000 -0.500000
v -1.000000 1.500000 0.750000
v -1.000000 1.500000 0.250000
v -1.000000 1.750000 0.500000
v -1.000000 1.250000 0.500000
v -1.000000 0.500000 0.750000
v -1.000000 0.500000 0.250000
v -1.000000 0.750000 0.500000
v -1.000000 0.250000 0.500000
v -0.750000 1.500000 1.000000
v -0.250000 1.500000 1.000000
v -0.500000 1.250000 1.000000
v -0.500000 1.750000 1.000000
v 1.000000 1.500000 0.750000
v 1.000000 1.500000 0.250000
v 1.000000 1.250000 0.500000
v 1.000000 1.750000 0.500000
v 0.250000 1.500000 -1.000000
v 0.500000 1.250000 -1.000000
v 0.750000 2.000000 0.500000
v 0.250000 2.000000 0.500000
v 0.500000 2.000000 0.250000
v 0.500000 2.000000 0.750000
v 0.500000 0.000000 0.750000
v 0.500000 0.000000 0.250000
v 0.250000 0.000000 0.500000
v 0.750000 0.000000 0.500000
v 0.750000 0.000000 0.250000
v 0.250000 0.000000 0.250000
v 0.250000 0.000000 0.750000
v 0.250000 2.000000 0.750000
v 0.250000 2.000000 0.250000
v 0.750000 2.000000 0.250000
v 1.000000 1.750000 0.250000
v 1.000000 1.250000 0.250000
v 1.000000 1.250000 0.750000
v -0.250000 1.750000 1.000000
v -0.250000 1.250000 1.000000
v -0.750000 1.250000 1.000000
v -1.000000 0.250000 0.250000
v -1.000000 0.750000 0.250000
v -1.000000 0.750000 0.750000
v -1.000000 1.250000 0.250000
v -1.000000 1.750000 0.250000
v -1.000000 1.750000 0.750000
v -1.000000 1.250000 -0.750000
v -1.000000 1.750000 -0.750000
v -1.000000 1.750000 -0.250000
v -1.000000 0.250000 -0.750000
v -1.000000 0.750000 -0.750000
v -1.000000 0.750000 -0.250000
v -0.250000 0.750000 1.000000
v -0.250000 0.250000 1.000000
v -0.750000 0.250000 1.000000
v 0.750000 0.750000 1.000000
v 0.750000 0.250000 1.000000
v 0.250000 0.250000 1.000000
v 0.750000 1.750000 1.000000
v 0.750000 1.250000 1.000000
v 0.250000 1.250000 1.000000
v 1.000000 0.750000 0.250000
v 1.000000 0.250000 0.250000
v 1.000000 0.250000 0.750000
v 1.000000 0.750000 -0.750000
v 1.000000 0.250000 -0.750000
v 1.000000 0.250000 -0.250000
v 1.000000 1.750000 -0.749999
v 1.000000 1.250000 -0.750000
v 1.000000 1.250000 -0.250000
v 0.250000 2.000000 -0.250000
v 0.250000 2.000000 -0.750000
v 0.750000 2.000000 -0.750000
v -0.750000 2.000000 -0.250000
v -0.750000 2.000000 -0.750000
v -0.250000 2.000000 -0.750000
v -0.750000 2.000000 0.750000
v -0.750000 2.000000 0.250000
v -0.250000 2.000000 0.250000
v -0.250000 0.000000 0.250000
v -0.750000 0.000000 0.250000
v -0.750000 0.000000 0.750000
v -0.250000 0.000000 -0.750000
v -0.750000 0.000000 -0.750000
v -0.750000 0.000000 -0.250000
v 0.750000 0.000000 -0.750000
v 0.250000 0.000000 -0.750000
v 0.250000 0.000000 -0.250000
v 0.750000 0.000000 -0.250000
v -0.250000 0.000000 -0.250000
v -0.250000 0.000000 0.750000
v -0.250000 2.000000 0.750000
v -0.250000 2.000000 -0.250000
v 0.750000 2.000000 -0.250000
v 1.000000 1.750000 -0.250000
v 1.000000 0.750000 -0.250000
v 1.000000 0.750000 0.750000
v 0.250000 1.750000 1.000000
v 0.250000 0.750000 1.000000
v -0.750000 0.750000 1.000000
v -1.000000 0.250000 -0.250000
v -1.000000 1.250000 -0.250000
v -1.000000 1.250000 0.750000
v -1.000000 0.250000 0.750000
v -0.750000 1.750000 1.000000
v 1.000000 1.750000 0.750000
v 0.750000 2.000000 0.750000
v 0.750000 0.000000 0.750000
vn 0.0000 -1.0000 0.0000
vn 0.0000 1.0000 0.0000
vn 1.0000 -0.0000 0.0000
vn 0.0000 -0.0000 1.0000
vn -1.0000 0.0000 -0.0000
vn -0.4472 -0.0000 -0.8944
vn 0.4472 0.0000 -0.8944
vn 0.0000 0.4472 -0.8944
vn 0.0000 -0.4472 -0.8944
vn 0.0000 0.0000 -1.0000
usemtl Material
s off
f 321//1 83//1 1//1 128//1
f 320//2 133//2 3//2 88//2
f 319//3 88//3 3//3 85//3
f 318//4 89//4 4//4 86//4
f 317//5 82//5 2//5 130//5
f 316//5 98//5 9//5 122//5
f 315//5 99//5 13//5 136//5
f 314//5 90//5 5//5 137//5
f 313//4 102//4 9//4 94//4
f 312//4 103//4 14//4 140//4
f 311//4 97//4 12//4 141//4
f 310//3 106//3 8//3 93//3
f 309//3 107//3 15//3 144//3
f 308//3 96//3 11//3 145//3
f 307//2 110//2 11//2 96//2
f 306//2 111//2 16//2 148//2
f 305//2 125//2 12//2 149//2
f 304//1 114//1 7//1 120//1
f 303//1 115//1 17//1 152//1
f 302//1 91//1 6//1 153//1
f 301//1 154//1 57//1 117//1
f 300//1 155//1 58//1 156//1
f 299//1 127//1 27//1 157//1
f 298//1 158//1 56//1 116//1
f 297//1 159//1 59//1 160//1
f 296//1 151//1 55//1 161//1
f 295//1 162//1 20//1 84//1
f 294//1 163//1 60//1 164//1
f 293//1 150//1 54//1 165//1
f 292//2 166//2 53//2 113//2
f 291//2 167//2 61//2 168//2
f 290//2 89//2 25//2 169//2
f 289//2 170//2 52//2 112//2
f 288//2 171//2 62//2 172//2
f 287//2 147//2 51//2 173//2
f 286//2 174//2 32//2 132//2
f 285//2 175//2 63//2 176//2
f 284//2 146//2 50//2 177//2
f 283//3 184//3 45//3 109//3
f 282//3 185//3 67//3 186//3
f 281//3 132//3 32//3 187//3
f 280//3 188//3 44//3 108//3
f 279//3 189//3 68//3 190//3
f 278//3 143//3 43//3 191//3
f 277//3 192//3 29//3 129//3
f 276//3 193//3 69//3 194//3
f 275//3 142//3 42//3 195//3
f 274//4 196//4 41//4 105//4
f 273//4 197//4 70//4 198//4
f 272//4 133//4 33//4 199//4
f 271//4 200//4 40//4 104//4
f 270//4 201//4 71//4 202//4
f 269//4 139//4 39//4 203//4
f 268//4 204//4 30//4 130//4
f 267//4 205//4 72//4 206//4
f 266//4 138//4 38//4 207//4
f 265//5 208//5 37//5 101//5
f 264//5 209//5 73//5 210//5
f 263//5 126//5 26//5 211//5
f 262//5 212//5 36//5 100//5
f 261//5 213//5 74//5 214//5
f 260//5 135//5 35//5 215//5
f 259//5 216//5 22//5 86//5
f 258//5 217//5 75//5 218//5
f 257//5 134//5 34//5 219//5
f 256//5 220//5 30//5 94//5
f 255//5 221//5 76//5 222//5
f 254//5 118//5 18//5 223//5
f 253//4 224//4 22//4 122//4
f 252//4 225//4 77//4 226//4
f 251//4 125//4 25//4 227//4
f 250//3 228//3 21//3 121//3
f 249//3 229//3 78//3 230//3
f 248//3 124//3 24//3 231//3
f 247//2 234//2 24//2 124//2
f 246//2 235//2 80//2 236//2
f 245//2 97//2 33//2 237//2
f 244//1 238//1 28//1 92//1
f 243//1 239//1 81//1 240//1
f 242//1 119//1 19//1 241//1
f 239//1 242//1 241//1 81//1
f 57//1 153//1 242//1 239//1
f 153//1 6//1 119//1 242//1
f 150//1 243//1 240//1 54//1
f 17//1 117//1 243//1 150//1
f 117//1 57//1 239//1 243//1
f 114//1 244//1 92//1 7//1
f 54//1 240//1 244//1 114//1
f 240//1 81//1 238//1 244//1
f 235//2 245//2 237//2 80//2
f 53//2 149//2 245//2 235//2
f 149//2 12//2 97//2 245//2
f 146//2 246//2 236//2 50//2
f 16//2 113//2 246//2 146//2
f 113//2 53//2 235//2 246//2
f 110//2 247//2 124//2 11//2
f 50//2 236//2 247//2 110//2
f 236//2 80//2 234//2 247//2
f 229//3 248//3 231//3 78//3
f 45//3 145//3 248//3 229//3
f 145//3 11//3 124//3 248//3
f 142//3 249//3 230//3 42//3
f 15//3 109//3 249//3 142//3
f 109//3 45//3 229//3 249//3
f 106//3 250//3 121//3 8//3
f 42//3 230//3 250//3 106//3
f 230//3 78//3 228//3 250//3
f 225//4 251//4 227//4 77//4
f 41//4 141//4 251//4 225//4
f 141//4 12//4 125//4 251//4
f 138//4 252//4 226//4 38//4
f 14//4 105//4 252//4 138//4
f 105//4 41//4 225//4 252//4
f 102//4 253//4 122//4 9//4
f 38//4 226//4 253//4 102//4
f 226//4 77//4 224//4 253//4
f 221//5 254//5 223//5 76//5
f 37//5 137//5 254//5 221//5
f 137//5 5//5 118//5 254//5
f 134//5 255//5 222//5 34//5
f 13//5 101//5 255//5 134//5
f 101//5 37//5 221//5 255//5
f 98//5 256//5 94//5 9//5
f 34//5 222//5 256//5 98//5
f 222//5 76//5 220//5 256//5
f 217//5 257//5 219//5 75//5
f 36//5 136//5 257//5 217//5
f 136//5 13//5 134//5 257//5
f 123//5 258//5 218//5 23//5
f 10//5 100//5 258//5 123//5
f 100//5 36//5 217//5 258//5
f 87//5 259//5 86//5 4//5
f 23//5 218//5 259//5 87//5
f 218//5 75//5 216//5 259//5
f 213//5 260//5 215//5 74//5
f 131//5 261//5 214//5 31//5
f 95//5 262//5 100//5 10//5
f 31//5 214//5 262//5 95//5
f 214//5 74//5 212//5 262//5
f 209//5 263//5 211//5 73//5
f 135//5 264//5 210//5 35//5
f 99//5 265//5 101//5 13//5
f 35//5 210//5 265//5 99//5
f 210//5 73//5 208//5 265//5
f 205//4 266//4 207//4 72//4
f 40//4 140//4 266//4 205//4
f 140//4 14//4 138//4 266//4
f 120//4 267//4 206//4 20//4
f 7//4 104//4 267//4 120//4
f 104//4 40//4 205//4 267//4
f 84//4 268//4 130//4 2//4
f 20//4 206//4 268//4 84//4
f 206//4 72//4 204//4 268//4
f 201//4 269//4 203//4 71//4
f 29//4 93//4 269//4 201//4
f 93//4 8//4 139//4 269//4
f 128//4 270//4 202//4 28//4
f 1//4 129//4 270//4 128//4
f 129//4 29//4 201//4 270//4
f 92//4 271//4 104//4 7//4
f 28//4 202//4 271//4 92//4
f 202//4 71//4 200//4 271//4
f 197//4 272//4 199//4 70//4
f 21//4 85//4 272//4 197//4
f 85//4 3//4 133//4 272//4
f 139//4 273//4 198//4 39//4
f 8//4 121//4 273//4 139//4
f 121//4 21//4 197//4 273//4
f 103//4 274//4 105//4 14//4
f 39//4 198//4 274//4 103//4
f 198//4 70//4 196//4 274//4
f 193//3 275//3 195//3 69//3
f 44//3 144//3 275//3 193//3
f 144//3 15//3 142//3 275//3
f 119//3 276//3 194//3 19//3
f 6//3 108//3 276//3 119//3
f 108//3 44//3 193//3 276//3
f 83//3 277//3 129//3 1//3
f 19//3 194//3 277//3 83//3
f 194//3 69//3 192//3 277//3
f 189//3 278//3 191//3 68//3
f 127//3 279//3 190//3 27//3
f 91//3 280//3 108//3 6//3
f 27//3 190//3 280//3 91//3
f 190//3 68//3 188//3 280//3
f 185//3 281//3 187//3 67//3
f 143//3 282//3 186//3 43//3
f 107//3 283//3 109//3 15//3
f 43//3 186//3 283//3 107//3
f 186//3 67//3 184//3 283//3
f 175//2 284//2 177//2 63//2
f 52//2 148//2 284//2 175//2
f 148//2 16//2 146//2 284//2
f 112//2 52//2 175//2 285//2
f 176//2 63//2 174//2 286//2
f 171//2 287//2 173//2 62//2
f 31//2 95//2 287//2 171//2
f 95//2 10//2 147//2 287//2
f 131//2 31//2 171//2 288//2
f 172//2 62//2 170//2 289//2
f 167//2 290//2 169//2 61//2
f 23//2 87//2 290//2 167//2
f 87//2 4//2 89//2 290//2
f 147//2 291//2 168//2 51//2
f 10//2 123//2 291//2 147//2
f 123//2 23//2 167//2 291//2
f 111//2 292//2 113//2 16//2
f 51//2 168//2 292//2 111//2
f 168//2 61//2 166//2 292//2
f 163//1 293//1 165//1 60//1
f 56//1 152//1 293//1 163//1
f 152//1 17//1 150//1 293//1
f 118//1 294//1 164//1 18//1
f 5//1 116//1 294//1 118//1
f 116//1 56//1 163//1 294//1
f 82//1 295//1 84//1 2//1
f 18//1 164//1 295//1 82//1
f 164//1 60//1 162//1 295//1
f 159//1 296//1 161//1 59//1
f 126//1 297//1 160//1 26//1
f 90//1 298//1 116//1 5//1
f 26//1 160//1 298//1 90//1
f 160//1 59//1 158//1 298//1
f 155//1 299//1 157//1 58//1
f 151//1 300//1 156//1 55//1
f 115//1 301//1 117//1 17//1
f 55//1 156//1 301//1 115//1
f 156//1 58//1 154//1 301//1
f 154//1 302//1 153//1 57//1
f 58//1 157//1 302//1 154//1
f 157//1 27//1 91//1 302//1
f 158//1 303//1 152//1 56//1
f 59//1 161//1 303//1 158//1
f 161//1 55//1 115//1 303//1
f 162//1 304//1 120//1 20//1
f 60//1 165//1 304//1 162//1
f 165//1 54//1 114//1 304//1
f 166//2 305//2 149//2 53//2
f 61//2 169//2 305//2 166//2
f 169//2 25//2 125//2 305//2
f 170//2 306//2 148//2 52//2
f 62//2 173//2 306//2 170//2
f 173//2 51//2 111//2 306//2
f 174//2 307//2 96//2 32//2
f 63//2 177//2 307//2 174//2
f 177//2 50//2 110//2 307//2
f 179//6 47//6 181//6 65//6 126//6 263//6 209//6 264//6 135//6 260//6 213//6 261//6 131//6 64//6
f 66//7 183//7 46//7 233//7 79//7 132//7 281//7 185//7 282//7 143//7 278//7 189//7 279//7 127//7
f 184//3 308//3 145//3 45//3
f 67//3 187//3 308//3 184//3
f 187//3 32//3 96//3 308//3
f 188//3 309//3 144//3 44//3
f 68//3 191//3 309//3 188//3
f 191//3 43//3 107//3 309//3
f 192//3 310//3 93//3 29//3
f 69//3 195//3 310//3 192//3
f 195//3 42//3 106//3 310//3
f 196//4 311//4 141//4 41//4
f 70//4 199//4 311//4 196//4
f 199//4 33//4 97//4 311//4
f 200//4 312//4 140//4 40//4
f 71//4 203//4 312//4 200//4
f 203//4 39//4 103//4 312//4
f 204//4 313//4 94//4 30//4
f 72//4 207//4 313//4 204//4
f 207//4 38//4 102//4 313//4
f 208//5 314//5 137//5 37//5
f 73//5 211//5 314//5 208//5
f 211//5 26//5 90//5 314//5
f 212//5 315//5 136//5 36//5
f 74//5 215//5 315//5 212//5
f 215//5 35//5 99//5 315//5
f 216//5 316//5 122//5 22//5
f 75//5 219//5 316//5 216//5
f 219//5 34//5 98//5 316//5
f 220//5 317//5 130//5 30//5
f 76//5 223//5 317//5 220//5
f 223//5 18//5 82//5 317//5
f 224//4 318//4 86//4 22//4
f 77//4 227//4 318//4 224//4
f 227//4 25//4 89//4 318//4
f 228//3 319//3 85//3 21//3
f 78//3 231//3 319//3 228//3
f 231//3 24//3 88//3 319//3
f 49//8 178//8 64//8 131//8 288//8 172//8 289//8 112//8 285//8 176//8 286//8 132//8 79//8 232//8
f 234//2 320//2 88//2 24//2
f 80//2 237//2 320//2 234//2
f 237//2 33//2 133//2 320//2
f 238//1 321//1 128//1 28//1
f 81//1 241//1 321//1 238//1
f 241//1 19//1 83//1 321//1
f 180//9 48//9 182//9 66//9 127//9 299//9 155//9 300//9 151//9 296//9 159//9 297//9 126//9 65//9
f 49//10 232//10 79//10 233//10 46//10 183//10 66//10 182//10 48//10 180//10 65//10 181//10 47//10 179//10 64//10 178//10
